<?xml version="1.0" encoding="utf-8"?>
<svg viewBox="0 0 166.505 161.818" height="666.65332" width="707.96002" id="svg2" version="1.1" xmlns="http://www.w3.org/2000/svg">
  <g transform="matrix(1.3333333,0,0,-1.3333333,0,666.65333)" id="g10">
    <g transform="scale(0.1)" id="g12">
      <path id="path18" style="fill:#555;fill-opacity:1;fill-rule:evenodd;stroke:none" d="M 622.259 4981.325 C 288.789 4981.325 18.379 4710.965 18.379 4377.445 C 18.379 4110.635 191.409 3884.275 431.349 3804.425 C 461.529 3798.835 472.609 3817.525 472.609 3833.475 C 472.609 3847.875 472.049 3895.445 471.789 3945.905 C 303.789 3909.375 268.339 4017.155 268.339 4017.155 C 240.869 4086.955 201.289 4105.515 201.289 4105.515 C 146.499 4142.995 205.419 4142.225 205.419 4142.225 C 266.059 4137.975 297.989 4079.985 297.989 4079.985 C 351.849 3987.675 439.259 4014.365 473.719 4029.795 C 479.139 4068.825 494.789 4095.475 512.059 4110.545 C 377.929 4125.815 236.929 4177.595 236.929 4408.985 C 236.929 4474.915 260.519 4528.785 299.149 4571.075 C 292.879 4586.295 272.209 4647.705 304.999 4730.885 C 304.999 4730.885 355.709 4747.115 471.109 4668.985 C 519.279 4682.365 570.939 4689.075 622.259 4689.305 C 673.579 4689.075 725.279 4682.365 773.539 4668.985 C 888.799 4747.115 939.439 4730.885 939.439 4730.885 C 972.309 4647.705 951.629 4586.295 945.359 4571.075 C 984.079 4528.785 1007.509 4474.915 1007.509 4408.985 C 1007.509 4177.045 866.239 4125.975 731.769 4111.025 C 753.429 4092.285 772.729 4055.535 772.729 3999.195 C 772.729 3918.395 772.029 3853.365 772.029 3833.475 C 772.029 3817.405 782.899 3798.575 813.509 3804.505 C 1053.319 3884.445 1226.129 4110.725 1226.129 4377.445 C 1226.129 4710.965 955.759 4981.325 622.259 4981.325"/>
      <path id="path20" style="fill:#555;fill-opacity:1;fill-rule:nonzero;stroke:none" d="M 247.099 4114.285 C 245.769 4111.275 241.049 4110.385 236.749 4112.445 C 232.369 4114.415 229.909 4118.505 231.329 4121.515 C 232.629 4124.595 237.359 4125.455 241.729 4123.405 C 246.119 4121.425 248.619 4117.295 247.099 4114.285 L 247.099 4114.285"/>
      <path id="path22" style="fill:#555;fill-opacity:1;fill-rule:nonzero;stroke:none" d="M 271.559 4087.005 C 268.679 4084.335 263.049 4085.575 259.229 4089.795 C 255.279 4094.005 254.539 4099.635 257.459 4102.345 C 260.429 4105.005 265.889 4103.755 269.849 4099.555 C 273.799 4095.295 274.569 4089.705 271.559 4087.005 L 271.559 4087.005"/>
      <path id="path24" style="fill:#555;fill-opacity:1;fill-rule:nonzero;stroke:none" d="M 295.369 4052.225 C 291.669 4049.655 285.619 4052.065 281.879 4057.435 C 278.179 4062.805 278.179 4069.245 281.959 4071.825 C 285.709 4074.405 291.669 4072.075 295.459 4066.755 C 299.149 4061.295 299.149 4054.855 295.369 4052.225 L 295.369 4052.225"/>
      <path id="path26" style="fill:#555;fill-opacity:1;fill-rule:nonzero;stroke:none" d="M 327.989 4018.625 C 324.679 4014.975 317.629 4015.955 312.469 4020.935 C 307.189 4025.805 305.719 4032.715 309.039 4036.365 C 312.389 4040.025 319.479 4038.995 324.679 4034.055 C 329.919 4029.195 331.519 4022.235 327.989 4018.625 L 327.989 4018.625"/>
      <path id="path28" style="fill:#555;fill-opacity:1;fill-rule:nonzero;stroke:none" d="M 372.989 3999.115 C 371.529 3994.385 364.739 3992.235 357.899 3994.245 C 351.069 3996.315 346.599 4001.855 347.979 4006.635 C 349.399 4011.395 356.219 4013.635 363.109 4011.485 C 369.929 4009.425 374.409 4003.925 372.989 3999.115 L 372.989 3999.115"/>
      <path id="path30" style="fill:#555;fill-opacity:1;fill-rule:nonzero;stroke:none" d="M 422.409 3995.495 C 422.579 3990.515 416.779 3986.385 409.599 3986.295 C 402.379 3986.135 396.539 3990.165 396.459 3995.065 C 396.459 4000.095 402.129 4004.185 409.349 4004.305 C 416.529 4004.445 422.409 4000.445 422.409 3995.495 L 422.409 3995.495"/>
      <path id="path32" style="fill:#555;fill-opacity:1;fill-rule:nonzero;stroke:none" d="M 468.399 4003.325 C 469.259 3998.465 464.269 3993.475 457.139 3992.145 C 450.129 3990.865 443.639 3993.865 442.749 3998.685 C 441.879 4003.665 446.959 4008.655 453.959 4009.945 C 461.099 4011.185 467.489 4008.265 468.399 4003.325 L 468.399 4003.325"/>
    </g>
  </g>
</svg>